<svg id="Layer_3" data-name="Layer 3" xmlns="http://www.w3.org/2000/svg" viewBox="0 0 165.32 107.9">
  <g>
    <path d="M155.56,125.91l-1.56.19-1-8.34-1.61-.26,1.08,8.79-1.55.19-1.33-10.85,3.21.51-.11-.9,1.55-.19Z" transform="translate(-104.53 -18.83)" fill="#896bff"/>
    <path d="M156.05,123.49l-.77-6.2a2.35,2.35,0,1,1,4.66-.58l.76,6.21a2.34,2.34,0,1,1-4.65.57Zm.78-6.39.77,6.2a.69.69,0,0,0,.87.68.7.7,0,0,0,.68-.87l-.76-6.21a.79.79,0,0,0-1.56.2Z" transform="translate(-104.53 -18.83)" fill="#896bff"/>
    <path d="M163.31,125l-1.55.19-.19-1.55,1.55-.19Z" transform="translate(-104.53 -18.83)" fill="#896bff"/>
    <path d="M167.19,124.48l-1.55.19-1.15-9.3-1.55.19-.19-1.55,3.1-.38Z" transform="translate(-104.53 -18.83)" fill="#896bff"/>
    <path d="M171.84,123.91l-1.55.19L169,113.25l1.55-.19Z" transform="translate(-104.53 -18.83)" fill="#896bff"/>
    <path d="M177.27,123.24l-1.55.2-1-8.35-1.6-.26,1.08,8.8-1.56.19L171.28,113l3.21.51-.11-.9,1.55-.19Z" transform="translate(-104.53 -18.83)" fill="#896bff"/>
    <path d="M183.69,111.44l.19,1.55-1.55.19,1.14,9.3-1.55.19-1.14-9.3-1.55.19L179,112Z" transform="translate(-104.53 -18.83)" fill="#896bff"/>
    <path d="M187.35,122l-1.55.19-1.34-10.86,1.55-.19Zm1-4.85-1.74-1.36,1.55-.19-.57-4.65,1.55-.19,1.33,10.86-1.55.19Z" transform="translate(-104.53 -18.83)" fill="#896bff"/>
    <path d="M193.77,110.2l.19,1.55-2.33.29,1,7.75,2.32-.29.19,1.56-3.88.47-1.33-10.85Zm.76,6.2-.77.1L192,115.14l2.33-.29Z" transform="translate(-104.53 -18.83)" fill="#896bff"/>
    <path d="M201.81,111.57l-1.36,1.74-.19-1.55a.7.7,0,0,0-.87-.68.69.69,0,0,0-.68.87l.28,2.33,3.1-.38.48,3.88a2.34,2.34,0,0,1-4.65.57l-.76-6.21a2.34,2.34,0,1,1,4.65-.57ZM199,114.28l.48,3.88A.78.78,0,1,0,201,118l-.29-2.33Z" transform="translate(-104.53 -18.83)" fill="#896bff"/>
    <path d="M204.52,114.39l.66,5.43-1.55.19-1.17-9.52,4.49-1.9,1.33,10.85-1.55.19-.47-3.88Zm0,0,1.55-.19-.42-3.37-1.49.64Z" transform="translate(-104.53 -18.83)" fill="#896bff"/>
    <path d="M207.73,108.49l1.55-.19,1.14,9.3,2.33-.29.19,1.56-3.88.47Z" transform="translate(-104.53 -18.83)" fill="#896bff"/>
    <path d="M214.6,113.15l.66,5.43-1.55.19-1.17-9.51,4.49-1.91,1.33,10.85-1.55.19-.47-3.88Zm0,0,1.55-.19-.42-3.36-1.49.64Z" transform="translate(-104.53 -18.83)" fill="#896bff"/>
    <path d="M221.36,110.56l-.45-3.69,1.55-.19.6,4.86-1.91.81,2,.32.59,4.86-1.55.19-.45-3.69-.8-.13-.75.32.45,3.69-1.55.19-.6-4.86,1.91-.81-2-.32-.59-4.86,1.55-.19.45,3.69.8.13Z" transform="translate(-104.53 -18.83)" fill="#896bff"/>
    <path d="M226.89,110.67l-.55-4.47,1.55-.19.69,5.64-1.5.63.59,4.78-1.55.19-.59-4.78-1.6-.25-.69-5.64,1.55-.19.54,4.47.81.13Z" transform="translate(-104.53 -18.83)" fill="#896bff"/>
  </g>
  <g>
    <path d="M115.56,33.25l3.42-.39,2.08,18.39,3.52.59L122.4,32.48l3.42-.39,2.07,18.39,3.53.59L129.24,31.7l3.41-.38,2.7,23.91L128.29,54l.23,2-10.59-1.8Z" transform="translate(-104.53 -18.83)" fill="#896bff"/>
    <path d="M142.91,30.14l.38,3.42-5.13.58,1.93,17.09,5.13-.58.39,3.42-8.55,1-2.7-23.93Zm1.54,13.68-1.71.19-3.8-3,5.12-.58Z" transform="translate(-104.53 -18.83)" fill="#896bff"/>
    <path d="M144.62,30l3.41-.38,2.32,20.5,5.13-.57.38,3.41-8.54,1Z" transform="translate(-104.53 -18.83)" fill="#896bff"/>
    <path d="M165.7,32.76l-3,3.81-.39-3.42a1.72,1.72,0,1,0-3.41.39l1.54,13.67a1.72,1.72,0,0,0,3.42-.39l-.39-3.42,3.81,3c.38,3.41-1.13,5.32-4.55,5.7S157.38,51,157,47.59l-1.54-13.67q-.58-5.13,4.55-5.7C163.41,27.83,165.32,29.35,165.7,32.76Z" transform="translate(-104.53 -18.83)" fill="#896bff"/>
    <path d="M169,46.24l-1.54-13.67c-.38-3.42,1.13-5.32,4.55-5.7s5.32,1.13,5.71,4.54l1.54,13.68c.38,3.41-1.13,5.32-4.55,5.7S169.34,49.66,169,46.24Zm1.88-14.05,1.54,13.67a1.72,1.72,0,0,0,3.42-.39L174.25,31.8a1.72,1.72,0,1,0-3.42.39Z" transform="translate(-104.53 -18.83)" fill="#896bff"/>
    <path d="M198.59,48.09l-3.42.39-2.08-18.39-3.53-.61,2.19,19.38-3.42.39-2.07-18.39-3.53-.61,2.18,19.38L181.5,50l-2.7-23.91,7.06,1.19-.23-2,10.59,1.78Z" transform="translate(-104.53 -18.83)" fill="#896bff"/>
    <path d="M206.14,23l.39,3.42L201.4,27l1.93,17.09,5.13-.57.38,3.41-8.54,1L197.6,24Zm1.54,13.67-1.7.19-3.81-3,5.13-.58Z" transform="translate(-104.53 -18.83)" fill="#896bff"/>
  </g>
  <g>
    <path d="M225.35,20.3l.39,3.41-3.42.39,2.31,20.51-3.42.38-2.31-20.5-3.42.38-.38-3.42Z" transform="translate(-104.53 -18.83)" fill="#896bff"/>
    <path d="M229.18,38.9l-1.54-13.67q-.58-5.13,4.55-5.71c3.41-.38,5.32,1.14,5.7,4.55l1.55,13.68c.38,3.41-1.14,5.32-4.55,5.7S229.57,42.32,229.18,38.9Zm1.88-14,1.54,13.67a1.72,1.72,0,0,0,3.42-.39l-1.55-13.67a1.72,1.72,0,1,0-3.41.39Z" transform="translate(-104.53 -18.83)" fill="#896bff"/>
  </g>
  <g>
    <path d="M114.83,69.46l5.26,46.6-7.76.88-6.14-54.37,19.42-2.19.87,7.77Zm14.28,22-3.88.44L116.59,85l11.65-1.31Z" transform="translate(-104.53 -18.83)" fill="#896bff"/>
    <path d="M134.31,102.66l-3.5-31.07q-1.32-11.65,10.33-13t13,10.33l3.5,31.07q1.32,11.66-10.33,13T134.31,102.66Zm4.26-31.95,3.51,31.07q.43,3.89,4.32,3.45t3.45-4.32l-3.51-31.07Q145.91,66,142,66.39C139.43,66.68,138.28,68.13,138.57,70.71Z" transform="translate(-104.53 -18.83)" fill="#896bff"/>
    <path d="M161.5,99.59,158,68.52q-1.32-11.64,10.34-13t13,10.33L184.8,97q1.3,11.66-10.34,13T161.5,99.59Zm4.26-31.94,3.5,31.06q.45,3.89,4.33,3.45T177,97.84l-3.51-31.07q-.44-3.88-4.32-3.45C166.61,63.62,165.47,65.06,165.76,67.65Z" transform="translate(-104.53 -18.83)" fill="#896bff"/>
  </g>
  <g>
    <path d="M210,61.58l.88,7.77c.37,3.29,0,6-1.22,8q2.41,2.59,3,7.53l.88,7.77q1.32,11.66-10.34,13l-11.65,1.32-6.13-54.37L197,51.25Q208.66,49.93,210,61.58Zm-6.89,8.64-.87-7.76q-.45-3.89-4.32-3.45l-3.89.44L195.74,75l3.89-.43Q203.52,74.1,203.07,70.22ZM195.74,75l2.63,23.31,3.89-.44c2.59-.29,3.74-1.74,3.44-4.32l-.87-7.77q-.45-3.89-4.33-3.45l-1.82.21Z" transform="translate(-104.53 -18.83)" fill="#896bff"/>
    <path d="M223.37,75.8,226.44,103l-7.77.87-5.38-47.65,22.55-9.31L242,101.23l-7.77.88L232,82.69Zm0,0,7.77-.88-1.91-16.85-7.51,3.13Z" transform="translate(-104.53 -18.83)" fill="#896bff"/>
    <path d="M250.11,68.85l3.51,31.07-7.77.87-6.13-54.37,11.65-1.31q11.65-1.32,13,10.33l.88,7.77q.92,8.16-4.51,11.25l9.15,23.63-8,.9Zm0,0,3.89-.44q3.88-.43,3.44-4.32l-.87-7.77q-.45-3.89-4.32-3.44l-3.89.43Z" transform="translate(-104.53 -18.83)" fill="#896bff"/>
  </g>
  <g>
    <path d="M114.06,32.43l3.42-.39,2.08,18.39,3.53.59L120.9,31.65l3.42-.38,2.07,18.39,3.53.59-2.18-19.37,3.41-.38,2.7,23.91-7.06-1.2.23,2-10.59-1.8Z" transform="translate(-104.53 -18.83)" fill="#fff"/>
    <path d="M141.41,29.32l.38,3.42-5.12.58,1.92,17.09,5.13-.58.39,3.42-8.55,1-2.7-23.92ZM143,43l-1.71.19-3.8-3,5.12-.58Z" transform="translate(-104.53 -18.83)" fill="#fff"/>
    <path d="M143.12,29.13l3.41-.39,2.32,20.51,5.13-.58.38,3.42-8.54,1Z" transform="translate(-104.53 -18.83)" fill="#fff"/>
    <path d="M164.2,31.94l-3,3.81-.38-3.42a1.72,1.72,0,1,0-3.42.38l1.54,13.68a1.72,1.72,0,0,0,3.42-.39l-.39-3.42,3.81,3c.38,3.41-1.13,5.32-4.55,5.7s-5.32-1.13-5.71-4.55L154,33.1q-.58-5.13,4.55-5.71C161.92,27,163.82,28.52,164.2,31.94Z" transform="translate(-104.53 -18.83)" fill="#fff"/>
    <path d="M167.46,45.42l-1.55-13.67c-.38-3.42,1.13-5.32,4.55-5.71s5.32,1.13,5.71,4.55l1.54,13.68c.39,3.41-1.13,5.32-4.55,5.7S167.84,48.84,167.46,45.42Zm1.87-14.06L170.87,45a1.72,1.72,0,0,0,3.42-.39L172.75,31a1.72,1.72,0,0,0-3.42.38Z" transform="translate(-104.53 -18.83)" fill="#fff"/>
    <path d="M197.09,47.27l-3.42.39-2.08-18.39-3.53-.61L190.25,48l-3.42.39L184.76,30l-3.53-.61,2.19,19.38L180,49.2l-2.7-23.91,7.06,1.19-.22-2,10.58,1.78Z" transform="translate(-104.53 -18.83)" fill="#fff"/>
    <path d="M204.64,22.19,205,25.6l-5.13.58,1.93,17.09L207,42.7l.38,3.41-8.54,1-2.7-23.93Zm1.55,13.67-1.71.19-3.81-3,5.13-.58Z" transform="translate(-104.53 -18.83)" fill="#fff"/>
  </g>
  <g>
    <path d="M224,19.66l.39,3.41-3.42.39L223.31,44l-3.41.38-2.32-20.5-3.42.38-.38-3.42Z" transform="translate(-104.53 -18.83)" fill="#fff"/>
    <path d="M227.86,38.26l-1.54-13.67q-.58-5.13,4.55-5.71t5.7,4.55l1.55,13.68c.38,3.41-1.13,5.32-4.55,5.7S228.25,41.68,227.86,38.26Zm1.88-14.06,1.54,13.68a1.72,1.72,0,0,0,3.42-.39l-1.54-13.67a1.72,1.72,0,1,0-3.42.38Z" transform="translate(-104.53 -18.83)" fill="#fff"/>
  </g>
  <g>
    <path d="M113.18,68.55l5.26,46.61-7.77.87-6.14-54.37L124,59.47l.88,7.77Zm14.28,22-3.89.44-8.64-6.89,11.65-1.32Z" transform="translate(-104.53 -18.83)" fill="#76deff"/>
    <path d="M132.66,101.75l-3.51-31.07q-1.32-11.64,10.33-13t13,10.33L156,99.12q1.31,11.66-10.34,13T132.66,101.75Zm4.26-31.94,3.5,31.07c.29,2.58,1.74,3.73,4.32,3.44s3.74-1.73,3.45-4.32l-3.51-31.07q-.44-3.89-4.32-3.44T136.92,69.81Z" transform="translate(-104.53 -18.83)" fill="#76deff"/>
    <path d="M159.84,98.68l-3.51-31.06Q155,56,166.67,54.65t13,10.34l3.5,31.06q1.32,11.65-10.33,13T159.84,98.68Zm4.26-31.94,3.51,31.07c.29,2.59,1.73,3.73,4.32,3.44s3.74-1.73,3.44-4.32l-3.5-31.07q-.44-3.88-4.32-3.44T164.1,66.74Z" transform="translate(-104.53 -18.83)" fill="#76deff"/>
  </g>
  <g>
    <path d="M208.31,60.67l.87,7.77q.57,4.94-1.22,8a12.87,12.87,0,0,1,3,7.54l.87,7.76q1.32,11.66-10.33,13L189.83,106l-6.14-54.37,11.65-1.31Q207,49,208.31,60.67Zm-6.89,8.65-.88-7.77q-.43-3.88-4.32-3.45l-3.88.44,1.75,15.54,3.88-.44Q201.86,73.2,201.42,69.32Zm-7.33,4.76,2.63,23.3,3.88-.44q3.89-.43,3.45-4.32l-.88-7.77q-.43-3.88-4.32-3.44l-1.83.2Z" transform="translate(-104.53 -18.83)" fill="#76deff"/>
    <path d="M221.71,74.89l3.07,27.19L217,103,211.63,55.3,234.18,46l6.13,54.33-7.76.88-2.19-19.42Zm0,0,7.77-.87-1.9-16.86-7.52,3.13Z" transform="translate(-104.53 -18.83)" fill="#76deff"/>
    <path d="M248.46,67.94,252,99l-7.76.88-6.14-54.37,11.65-1.32q11.66-1.31,13,10.34l.87,7.76q.93,8.16-4.51,11.25l9.16,23.63-8,.91Zm0,0,3.88-.44q3.89-.44,3.45-4.32l-.88-7.77q-.43-3.87-4.32-3.44l-3.88.44Z" transform="translate(-104.53 -18.83)" fill="#76deff"/>
  </g>
  <g>
    <path d="M154.79,126.16l-1.55.19-1-8.35-1.6-.26,1.08,8.8-1.55.19-1.33-10.85,3.21.51-.11-.9,1.55-.19Z" transform="translate(-104.53 -18.83)" fill="#fff"/>
    <path d="M155.28,123.73l-.76-6.2a2.34,2.34,0,0,1,4.65-.57l.76,6.2a2.34,2.34,0,1,1-4.65.57Zm.79-6.39.76,6.2a.78.78,0,1,0,1.55-.19l-.76-6.2a.78.78,0,0,0-1.55.19Z" transform="translate(-104.53 -18.83)" fill="#fff"/>
    <path d="M162.54,125.2l-1.55.19-.19-1.55,1.55-.19Z" transform="translate(-104.53 -18.83)" fill="#fff"/>
    <path d="M166.42,124.73l-1.55.19-1.14-9.31-1.55.19-.19-1.55,3.1-.38Z" transform="translate(-104.53 -18.83)" fill="#fff"/>
    <path d="M171.07,124.16l-1.55.19-1.33-10.86,1.55-.19Z" transform="translate(-104.53 -18.83)" fill="#fff"/>
    <path d="M176.5,123.49l-1.55.19-1-8.34-1.61-.26,1.08,8.79-1.55.19-1.33-10.85,3.21.51-.11-.9,1.55-.19Z" transform="translate(-104.53 -18.83)" fill="#fff"/>
    <path d="M182.92,111.68l.19,1.55-1.55.19,1.15,9.31-1.56.19L180,113.61l-1.55.19-.19-1.55Z" transform="translate(-104.53 -18.83)" fill="#fff"/>
    <path d="M186.58,122.25l-1.55.19-1.33-10.85,1.55-.19Zm1-4.84-1.74-1.36,1.55-.19-.57-4.65,1.55-.19,1.33,10.85-1.55.19Z" transform="translate(-104.53 -18.83)" fill="#fff"/>
    <path d="M193,110.44l.19,1.56-2.32.28.95,7.75,2.33-.28.19,1.55-3.88.48-1.33-10.86Zm.77,6.21-.78.09-1.74-1.36,2.33-.28Z" transform="translate(-104.53 -18.83)" fill="#fff"/>
    <path d="M201,111.82l-1.36,1.74-.19-1.55a.78.78,0,0,0-1.55.19l.29,2.33,3.1-.39.48,3.88a2.35,2.35,0,0,1-4.66.57l-.76-6.2a2.34,2.34,0,0,1,4.65-.57Zm-2.81,2.71.47,3.87a.78.78,0,0,0,1.55-.19l-.28-2.32Z" transform="translate(-104.53 -18.83)" fill="#fff"/>
    <path d="M203.75,114.63l.67,5.43-1.55.19-1.17-9.51,4.49-1.91,1.33,10.85-1.55.19-.48-3.88Zm0,0,1.55-.19-.41-3.36-1.5.64Z" transform="translate(-104.53 -18.83)" fill="#fff"/>
    <path d="M207,108.73l1.55-.19,1.15,9.31,2.32-.29.19,1.55-3.88.48Z" transform="translate(-104.53 -18.83)" fill="#fff"/>
    <path d="M213.83,113.4l.67,5.42L213,119l-1.17-9.52,4.49-1.9,1.33,10.84-1.55.19-.48-3.87Zm0,0,1.55-.19-.41-3.37-1.5.64Z" transform="translate(-104.53 -18.83)" fill="#fff"/>
    <path d="M220.6,110.8l-.46-3.69,1.55-.19.6,4.86-1.91.81,2.05.33.6,4.86-1.55.19-.46-3.69-.8-.13-.75.32.46,3.69-1.55.19-.6-4.86,1.91-.81-2.05-.33-.6-4.86,1.55-.19.46,3.69.8.13Z" transform="translate(-104.53 -18.83)" fill="#fff"/>
    <path d="M226.12,110.91l-.55-4.46,1.55-.19.7,5.63-1.5.63.58,4.78-1.55.19-.58-4.77-1.61-.26-.69-5.63,1.55-.19.55,4.46.8.13Z" transform="translate(-104.53 -18.83)" fill="#fff"/>
  </g>
</svg>
